HIERARCHY
ROOT Pelvis
{
	OFFSET 0.000000 0.000000 0.000000
	CHANNELS 6 Xposition Yposition Zposition Xrotation Yrotation Zrotation
	JOINT LeftUpLeg_virtual
	{
		OFFSET 0.000000 0.000000 0.000000
		CHANNELS 3 Xrotation Yrotation Zrotation
		JOINT LeftUpLeg
		{
			OFFSET 18.735201 -5.666702 -4.541200
			CHANNELS 3 Xrotation Yrotation Zrotation
			JOINT LeftLeg
			{
				OFFSET -0.021200 -31.938179 0.493100
				CHANNELS 3 Xrotation Yrotation Zrotation
				JOINT LeftFoot
				{
					OFFSET 0.021200 -31.938179 -4.336299
					CHANNELS 3 Xrotation Yrotation Zrotation
					JOINT LeftToeBase
					{
						OFFSET 0.943001 -26.722000 15.023500
						CHANNELS 3 Xrotation Yrotation Zrotation
						End Site
						{
							OFFSET 0 0 0
						}
					}
				}
			}
		}
	}
	JOINT RightUpLeg_virtual
	{
		OFFSET 0.000000 0.000000 0.000000
		CHANNELS 3 Xrotation Yrotation Zrotation
		JOINT RightUpLeg
		{
			OFFSET -18.735201 -5.666702 -4.541200
			CHANNELS 3 Xrotation Yrotation Zrotation
			JOINT RightLeg
			{
				OFFSET 0.018946 -31.938133 0.493100
				CHANNELS 3 Xrotation Yrotation Zrotation
				JOINT RightFoot
				{
					OFFSET -0.018946 -31.938126 -4.336299
					CHANNELS 3 Xrotation Yrotation Zrotation
					JOINT RightToeBase
					{
						OFFSET -0.943001 -26.722004 15.023500
						CHANNELS 3 Xrotation Yrotation Zrotation
						End Site
						{
							OFFSET 0 0 0
						}
					}
				}
			}
		}
	}
	JOINT Hips_virtual
	{
		OFFSET 0.000000 0.000000 0.000000
		CHANNELS 3 Xrotation Yrotation Zrotation
		JOINT Hips
		{
			OFFSET -0.000000 -0.000000 -0.000000
			CHANNELS 3 Xrotation Yrotation Zrotation
			JOINT Spine
			{
				OFFSET 0.000000 10.199997 -0.299500
				CHANNELS 3 Xrotation Yrotation Zrotation
				JOINT Spine1
				{
					OFFSET 0.000000 11.900002 -1.516600
					CHANNELS 3 Xrotation Yrotation Zrotation
					JOINT Spine2
					{
						OFFSET 0.000000 13.600006 -2.842500
						CHANNELS 3 Xrotation Yrotation Zrotation
						JOINT Neck_virtual
						{
							OFFSET 0.000000 0.000000 0.000000
							CHANNELS 3 Xrotation Yrotation Zrotation
							JOINT Neck
							{
								OFFSET 0.000000 9.624100 -2.890100
								CHANNELS 3 Xrotation Yrotation Zrotation
								JOINT Head
								{
									OFFSET 0.000000 14.068802 -1.351900
									CHANNELS 3 Xrotation Yrotation Zrotation
									End Site
									{
										OFFSET 0 0 0
									}
								}
							}
						}
						JOINT LeftShoulder_virtual
						{
							OFFSET 0.000000 0.000000 0.000000
							CHANNELS 3 Xrotation Yrotation Zrotation
							JOINT LeftShoulder
							{
								OFFSET 15.263000 10.923401 -0.547700
								CHANNELS 3 Xrotation Yrotation Zrotation
								JOINT LeftArm
								{
									OFFSET 25.438599 -2.830597 -13.032500
									CHANNELS 3 Xrotation Yrotation Zrotation
									JOINT LeftForeArm
									{
										OFFSET 29.960503 0.000000 0.000000
										CHANNELS 3 Xrotation Yrotation Zrotation
										JOINT LeftHand
										{
											OFFSET 27.849251 0.000000 0.000000
											CHANNELS 3 Xrotation Yrotation Zrotation
											End Site
											{
												OFFSET 0 0 0
											}
										}
									}
								}
							}
						}
						JOINT RightShoulder_virtual
						{
							OFFSET 0.000000 0.000000 0.000000
							CHANNELS 3 Xrotation Yrotation Zrotation
							JOINT RightShoulder
							{
								OFFSET -15.263000 10.923401 -0.547700
								CHANNELS 3 Xrotation Yrotation Zrotation
								JOINT RightArm
								{
									OFFSET -25.438599 -2.830597 -13.032500
									CHANNELS 3 Xrotation Yrotation Zrotation
									JOINT RightForeArm
									{
										OFFSET -29.960503 0.000000 0.000000
										CHANNELS 3 Xrotation Yrotation Zrotation
										JOINT RightHand
										{
											OFFSET -27.849251 0.000000 0.000000
											CHANNELS 3 Xrotation Yrotation Zrotation
											End Site
											{
												OFFSET 0 0 0
											}
										}
									}
								}
							}
						}
					}
				}
			}
		}
	}
}
MOTION
Frames: 12
Frame Time: 0.03333333
2.166504 190.433319 -21.957512 0.000000 0.000000 0.000000 7.814538 -6.643219 0.338660 -87.355797 11.382360 25.536209 95.231442 1.187292 9.174716 1.387739 8.368632 -31.973745 0.000000 0.000000 0.000000 7.814538 -6.643219 0.338660 -108.969753 21.445599 -12.850595 113.420250 -4.098689 0.681563 13.537074 -7.166826 37.373456 0.000000 0.000000 0.000000 7.814538 -6.643219 0.338660 0.000000 0.000000 0.000000 7.001485 -0.778401 -0.714754 13.996681 -1.811982 -1.211085 0.000000 0.000000 0.000000 13.996693 -1.811984 -1.211084 -4.876636 0.963404 -0.358699 0.000000 0.000000 0.000000 13.996693 -1.811984 -1.211084 -1.844333 -14.027008 26.494092 -63.430382 -7.026765 -16.234093 23.387162 -71.240342 49.981890 0.000000 0.000000 0.000000 13.996693 -1.811984 -1.211084 5.983845 16.525182 -13.888778 -72.297156 38.279703 21.699752 -16.158298 59.491385 -20.424381 0.000000 0.000000 0.000000 
2.268029 190.754211 -23.928848 0.000000 0.000000 0.000000 5.213639 -7.491863 0.387399 -95.018020 5.543840 27.647166 100.622647 -2.546124 4.775319 -1.095036 9.493789 -33.220609 0.000000 0.000000 0.000000 5.213639 -7.491863 0.387399 -113.470329 17.589882 -13.828114 108.911888 -1.521709 -1.160595 13.810252 -6.826934 38.751713 0.000000 0.000000 0.000000 5.213639 -7.491863 0.387399 0.000000 0.000000 0.000000 8.444399 -0.616639 -0.772518 16.887410 -1.177193 -1.114027 0.000000 0.000000 0.000000 16.887422 -1.177189 -1.114029 -5.366345 1.232904 -0.531178 0.000000 0.000000 0.000000 16.887422 -1.177189 -1.114029 -0.612870 -14.977172 27.292799 -67.334785 -8.203781 -15.014248 16.808255 -68.480317 48.052990 0.000000 0.000000 0.000000 16.887422 -1.177189 -1.114029 6.218779 17.756042 -13.894191 -82.947921 43.284500 24.548712 -18.192467 53.742479 -21.031667 0.000000 0.000000 0.000000 
2.498860 190.405823 -25.374966 0.000000 0.000000 0.000000 2.543212 -7.670462 0.546406 -101.214319 3.132136 27.546640 98.128133 -5.182957 2.209607 0.628568 8.956909 -32.446636 0.000000 0.000000 0.000000 2.543212 -7.670462 0.546406 -113.618018 11.182908 -15.490172 99.343940 2.072919 -2.179299 11.340420 -6.756048 35.747643 0.000000 0.000000 0.000000 2.543212 -7.670462 0.546406 0.000000 -0.000001 0.000000 9.690829 -0.418120 -0.760583 19.380863 -0.593883 -1.137936 0.000000 0.000000 0.000000 19.380875 -0.593885 -1.137935 -5.589151 1.518246 -0.685184 0.000000 0.000000 0.000000 19.380875 -0.593885 -1.137935 1.416566 -16.917214 27.896842 -71.463921 -13.211112 -13.429065 5.023494 -63.827230 43.312449 0.000000 0.000000 0.000000 19.380875 -0.593885 -1.137935 7.401554 20.145757 -15.002644 -85.334792 46.412249 18.300088 -22.943300 49.160246 -18.542920 0.000000 0.000000 0.000000 
2.798155 189.558136 -26.304489 0.000000 0.000000 0.000000 0.336172 -7.620556 0.782746 -102.430469 5.025554 25.355151 88.121803 -7.396473 1.406665 3.925747 7.570081 -28.216201 0.000000 0.000000 0.000000 0.336172 -7.620556 0.782746 -108.505498 3.190830 -16.848791 85.589613 6.461886 -1.892446 6.550411 -6.735686 27.846060 0.000000 0.000000 0.000000 0.336172 -7.620556 0.782746 0.000000 0.000000 0.000000 10.658766 -0.190419 -0.663841 21.316524 -0.290757 -1.141271 0.000000 0.000000 0.000000 21.316520 -0.290755 -1.141271 -5.508974 1.762484 -0.758586 0.000000 0.000000 0.000000 21.316520 -0.290755 -1.141271 3.604441 -18.354387 29.488030 -73.580767 -16.357436 -9.940307 -5.383954 -59.850093 38.716890 0.000000 0.000000 0.000000 21.316520 -0.290755 -1.141271 8.955279 22.064439 -17.026265 -80.139101 47.684238 5.475437 -28.400683 45.367264 -14.783270 0.000000 0.000000 0.000000 
2.806957 188.088989 -26.782440 0.000000 0.000000 0.000000 -1.325512 -7.633310 0.992333 -99.373495 9.252750 22.364947 74.699354 -9.927511 1.527339 9.503827 5.583173 -19.794622 0.000000 0.000000 0.000000 -1.325512 -7.633310 0.992333 -100.613188 -4.987207 -17.258990 70.259916 9.608284 -0.717194 3.744921 -5.253127 18.545528 0.000000 0.000000 0.000000 -1.325512 -7.633310 0.992333 0.000000 0.000000 0.000000 11.263076 -0.010650 -0.526436 22.525114 -0.233015 -1.044681 0.000000 0.000000 0.000000 22.525096 -0.233015 -1.044680 -5.147164 1.925312 -0.734171 0.000000 0.000000 0.000000 22.525096 -0.233015 -1.044680 4.957429 -18.168880 31.734579 -73.124401 -15.655249 -5.604224 -14.257573 -56.993878 32.782548 0.000000 0.000000 0.000000 22.525096 -0.233015 -1.044680 10.130649 22.158372 -19.697099 -74.150064 46.992084 -5.532347 -32.523086 41.786602 -11.731353 0.000000 0.000000 0.000000 
2.238777 185.739899 -26.769840 0.000000 0.000000 0.000000 -2.856345 -7.489443 1.258394 -93.299332 14.501791 19.594378 63.431400 -13.286079 1.320341 10.660432 5.675706 -9.154338 0.000000 0.000000 0.000000 -2.856345 -7.489443 1.258394 -92.838356 -12.663055 -16.510046 53.345557 9.364416 0.236047 11.129521 -1.891609 12.110672 0.000000 0.000000 0.000000 -2.856345 -7.489443 1.258394 0.000000 0.000000 0.000000 11.509192 -0.123660 -0.481196 23.017555 -0.255262 -0.881365 0.000000 0.000000 0.000000 23.017531 -0.255258 -0.881369 -4.587957 2.003976 -0.645678 0.000000 0.000000 0.000000 23.017531 -0.255258 -0.881369 5.058433 -16.552479 33.912289 -71.568758 -13.168065 -2.777418 -21.755571 -53.568733 25.644492 0.000000 0.000000 0.000000 23.017531 -0.255258 -0.881369 11.038702 20.184396 -23.873265 -71.352159 44.246642 -10.401459 -35.120283 38.850621 -10.056455 0.000000 0.000000 0.000000 
1.541809 182.509262 -26.128883 0.000000 0.000000 0.000000 -4.831803 -7.216768 1.449976 -80.067808 21.166760 15.388187 45.059895 -16.673610 0.975766 12.679894 5.481801 -1.375389 0.000000 0.000000 0.000000 -4.831803 -7.216768 1.449976 -91.798740 -16.621834 -17.562447 50.771006 8.772123 0.193572 12.279920 0.098582 10.230249 0.000000 0.000000 0.000000 -4.831803 -7.216768 1.449976 0.000000 0.000000 0.000000 11.524150 -0.170644 -0.419271 23.047896 -0.227261 -0.703354 0.000000 0.000000 0.000000 23.047888 -0.227261 -0.703354 -3.948118 2.024074 -0.545947 0.000000 0.000000 0.000000 23.047888 -0.227261 -0.703354 4.501751 -14.521501 35.751006 -69.727789 -11.772283 -1.413572 -27.740327 -47.885835 18.457772 0.000000 0.000000 0.000000 23.047888 -0.227261 -0.703354 12.242680 17.018045 -30.451043 -70.717955 38.069091 -10.863248 -37.434194 37.109005 -9.049454 0.000000 0.000000 0.000000 
0.849174 179.079590 -25.003239 0.000000 0.000000 0.000000 -7.589876 -6.511174 1.703861 -82.316805 22.063272 16.679996 56.475911 -16.548486 1.498525 -1.065199 3.834257 4.461683 0.000000 0.000000 0.000000 -7.589876 -6.511174 1.703861 -97.061004 -16.510808 -20.885996 61.551144 8.820493 -0.785052 6.796238 0.332562 10.642880 0.000000 0.000000 0.000000 -7.589876 -6.511174 1.703861 0.000000 0.000000 0.000000 11.478598 -0.237591 -0.389809 22.957548 -0.108068 -0.511701 0.000000 0.000000 0.000000 22.957564 -0.108066 -0.511700 -3.331036 2.013115 -0.472230 0.000000 0.000000 0.000000 22.957564 -0.108066 -0.511700 4.226165 -12.996085 37.302221 -67.686396 -12.237956 0.075548 -31.938572 -39.759532 12.159192 0.000000 0.000000 0.000000 22.957564 -0.108066 -0.511700 13.894745 13.958229 -38.568675 -69.847994 28.754362 -10.293766 -40.107106 35.870350 -7.676484 0.000000 0.000000 0.000000 
0.332588 175.607529 -22.722435 0.000000 0.000000 0.000000 -11.028620 -5.701614 1.783033 -87.137593 20.685032 19.049150 68.773687 -14.478987 1.834434 -4.989766 1.549949 5.371749 0.000000 0.000000 0.000000 -11.028620 -5.701614 1.783033 -103.075382 -14.460158 -23.714936 73.900085 9.342638 -1.893370 4.077251 -0.473642 10.071682 0.000000 0.000000 0.000000 -11.028620 -5.701614 1.783033 -0.000001 0.000000 0.000000 11.470880 -0.121003 -0.270553 22.942016 0.092156 -0.293755 0.000000 0.000000 0.000000 22.942032 0.092158 -0.293756 -2.805342 1.984428 -0.435585 0.000000 0.000000 0.000000 22.942032 0.092158 -0.293756 4.671618 -12.257692 38.625054 -65.487902 -13.779703 2.376947 -34.045536 -30.547604 7.247275 0.000000 0.000000 0.000000 22.942032 0.092158 -0.293756 15.704977 11.918129 -45.789554 -68.272631 19.565920 -10.099382 -42.230817 34.016507 -5.728535 0.000000 0.000000 0.000000 
0.106287 172.773392 -19.853859 0.000000 0.000000 0.000000 -14.728705 -5.171947 1.508677 -91.317047 18.023788 21.251181 80.009615 -12.935756 1.830186 -5.977557 0.260104 4.744486 0.000000 0.000000 0.000000 -14.728705 -5.171947 1.508677 -107.126381 -11.962046 -25.711890 85.265957 11.033079 -2.367650 0.474706 -2.067794 8.431574 0.000000 0.000000 0.000000 -14.728705 -5.171947 1.508677 -0.000001 0.000000 0.000000 11.476909 0.070692 -0.123845 22.953595 0.345588 -0.083091 0.000000 0.000000 0.000000 22.953602 0.345585 -0.083090 -2.490237 1.909282 -0.410501 0.000000 0.000000 0.000000 22.953602 0.345585 -0.083090 5.575886 -11.979424 39.733249 -63.453489 -15.423612 4.425349 -33.905472 -22.626485 4.073451 0.000000 0.000000 0.000000 22.953602 0.345585 -0.083090 17.136837 11.176287 -50.120239 -66.572884 13.637280 -10.100449 -42.447529 31.732267 -3.846540 0.000000 0.000000 0.000000 
0.034168 170.767975 -16.832817 0.000000 0.000000 0.000000 -18.181363 -5.215515 0.783984 -93.377422 15.238463 23.238004 90.064398 -13.424196 1.468530 -9.694485 0.598760 5.169545 0.000000 0.000000 0.000000 -18.181363 -5.215515 0.783984 -109.685127 -10.072280 -27.475802 94.409463 12.973260 -2.246044 -1.902328 -3.245062 6.467155 0.000000 0.000000 0.000000 -18.181363 -5.215515 0.783984 0.000001 0.000000 0.000000 11.406448 0.173502 -0.069973 22.812016 0.586518 0.054740 0.000000 0.000000 0.000000 22.812016 0.586518 0.054740 -2.346115 1.769973 -0.363904 0.000000 0.000000 0.000000 22.812016 0.586518 0.054740 6.358295 -11.652295 40.610317 -62.036518 -16.359674 4.670822 -31.920974 -18.317883 2.569093 0.000000 0.000000 0.000000 22.812016 0.586518 0.054740 17.741748 11.449982 -51.489774 -65.028223 11.625210 -9.671894 -40.490140 29.609007 -2.349866 0.000000 0.000000 0.000000 
-0.013574 169.283279 -13.795471 0.000000 0.000000 0.000000 -20.943696 -5.818889 -0.279250 -94.585996 12.731952 25.698930 99.376616 -15.481086 0.916176 -15.270995 1.920679 7.182038 0.000000 0.000000 0.000000 -20.943696 -5.818889 -0.279250 -111.855556 -9.064575 -29.802721 101.545747 14.930821 -1.993305 -2.842842 -3.368548 5.152019 0.000000 0.000000 0.000000 -20.943696 -5.818889 -0.279250 0.000002 0.000000 0.000000 11.196951 0.135656 -0.158697 22.392055 0.710120 0.084034 0.000000 0.000000 0.000000 22.392055 0.710120 0.084033 -2.267400 1.601245 -0.307997 0.000000 0.000000 0.000000 22.392055 0.710120 0.084033 6.617159 -11.000692 41.180423 -61.255322 -16.288318 3.002359 -29.060566 -17.939862 2.174260 0.000000 0.000000 0.000000 22.392055 0.710120 0.084033 17.547548 12.121538 -51.238221 -63.729271 12.294410 -8.462907 -37.254727 27.584701 -1.180100 0.000000 0.000000 0.000000 
